<svg width="1440" height="501" viewBox="0 0 1440 501" fill="none" xmlns="http://www.w3.org/2000/svg">
<mask id="mask0_217_21" style="mask-type:alpha" maskUnits="userSpaceOnUse" x="0" y="0" width="1440" height="501">
<rect width="1440" height="501" fill="#D1F4F9"/>
</mask>
<g mask="url(#mask0_217_21)">
<path d="M-0.635846 256.975L238.273 1.8439C238.929 1.14424 238.432 0 237.474 0C237.171 0 236.883 0.125005 236.676 0.345393L-2.62947 255.106C-2.8675 255.359 -3 255.694 -3 256.041C-3 257.28 -1.48292 257.88 -0.635846 256.975Z" fill="url(#paint0_linear_217_21)" fill-opacity="0.35"/>
<path d="M180.484 503.143L292.546 365.795C292.861 365.409 292.568 364.832 292.07 364.858C291.91 364.867 291.76 364.942 291.658 365.066L178.699 501.676C178.076 502.429 178.611 503.567 179.588 503.568C179.935 503.568 180.265 503.412 180.484 503.143Z" fill="url(#paint1_linear_217_21)" fill-opacity="0.35"/>
<path d="M492.205 103.709L587.28 1.84251C587.934 1.14242 587.437 0 586.48 0C586.174 0 585.882 0.127811 585.675 0.352527L491.185 102.762C491.066 102.89 491 103.059 491 103.234C491 103.866 491.774 104.171 492.205 103.709Z" fill="url(#paint2_linear_217_21)" fill-opacity="0.35"/>
<path d="M1204.44 503.504L1439.74 240.323C1439.91 240.137 1440 239.896 1440 239.647C1440 238.716 1438.85 238.277 1438.23 238.968L1202.23 501.52C1201.37 502.477 1202.05 504 1203.34 504C1203.76 504 1204.16 503.82 1204.44 503.504Z" fill="url(#paint3_linear_217_21)" fill-opacity="0.35"/>
<path d="M1038.74 123.576L1145.09 2.18278C1145.83 1.33219 1145.23 -6.37947e-05 1144.1 -0.00010426C1143.72 -0.000117618 1143.36 0.164065 1143.11 0.450217L1036.95 122.014C1036.3 122.756 1036.79 123.92 1037.77 123.978C1038.14 124 1038.5 123.851 1038.74 123.576Z" fill="url(#paint4_linear_217_21)" fill-opacity="0.35"/>
<path d="M740.29 504.486L794.072 433.169C794.669 432.377 794.116 431.243 793.125 431.225C792.736 431.218 792.368 431.398 792.135 431.708L738.377 503.045C737.783 503.834 738.346 504.964 739.335 504.963C739.71 504.962 740.064 504.786 740.29 504.486Z" fill="url(#paint5_linear_217_21)" fill-opacity="0.35"/>
</g>
<defs>
<linearGradient id="paint0_linear_217_21" x1="-33.2461" y1="266.881" x2="226.098" y2="-14.588" gradientUnits="userSpaceOnUse">
<stop stop-color="#35AFBF"/>
<stop offset="1" stop-color="#35AFBF" stop-opacity="0.06"/>
</linearGradient>
<linearGradient id="paint1_linear_217_21" x1="160.339" y1="509.729" x2="286.209" y2="357.977" gradientUnits="userSpaceOnUse">
<stop stop-color="#35AFBF"/>
<stop offset="1" stop-color="#35AFBF" stop-opacity="0.06"/>
</linearGradient>
<linearGradient id="paint2_linear_217_21" x1="477.425" y1="109.037" x2="583.387" y2="-5.90135" gradientUnits="userSpaceOnUse">
<stop stop-color="#35AFBF"/>
<stop offset="1" stop-color="#35AFBF" stop-opacity="0.06"/>
</linearGradient>
<linearGradient id="paint3_linear_217_21" x1="1166.75" y1="514.265" x2="1436.83" y2="232.122" gradientUnits="userSpaceOnUse">
<stop stop-color="#35AFBF"/>
<stop offset="1" stop-color="#35AFBF" stop-opacity="0.06"/>
</linearGradient>
<linearGradient id="paint4_linear_217_21" x1="1020.66" y1="127.985" x2="1159.08" y2="13.6569" gradientUnits="userSpaceOnUse">
<stop stop-color="#35AFBF"/>
<stop offset="1" stop-color="#35AFBF" stop-opacity="0.06"/>
</linearGradient>
<linearGradient id="paint5_linear_217_21" x1="728.948" y1="507.698" x2="805.264" y2="442.09" gradientUnits="userSpaceOnUse">
<stop stop-color="#35AFBF"/>
<stop offset="1" stop-color="#35AFBF" stop-opacity="0.06"/>
</linearGradient>
</defs>
</svg>
