<svg xmlns="http://www.w3.org/2000/svg" xmlns:xlink="http://www.w3.org/1999/xlink"><defs>
        <clipPath id="a">
            <path fill="#fff" d="M0 0h38v38H0z"/>
        </clipPath>
    
        <clipPath id="a">
            <path fill="#fff" d="M0 0h20v20H0z"/>
        </clipPath>
    
        <clipPath id="a">
            <path fill="#fff" d="M0 0h33v33H0z"/>
        </clipPath>
    
        <clipPath id="a">
            <path fill="#fff" d="M0 0h30v30H0z"/>
        </clipPath>
    
        <clipPath id="a">
            <path fill="#fff" d="M0 0h20v20H0z"/>
        </clipPath>
    
        <clipPath id="a">
            <path fill="#fff" d="M0 0h20v20H0z"/>
        </clipPath>
    </defs><symbol id="brand" viewBox="0 0 35 21"><g fill="none">
    <path d="M29.284 10.51 22.964 0l-2.603 1.566-4.134 2.485 4.134 6.884 5.458 9.098H35l-5.716-9.522ZM20.361 16.288l-5.506-9.161-6.523 3.926-.223.132.223.37 5.095 8.478H22.6l-2.24-3.745ZM8.332 16.9l-1.588-2.637L0 18.313l1.03 1.72H10.212l-1.88-3.132Z" fill="CurrentColor"/>
</g></symbol><symbol id="clock" viewBox="0 0 38 38"><g fill="none">
    <g clip-path="url(#a)" fill="CurrentColor">
        <path d="M17.883 7.875c-5.27.525-9.472 4.728-9.997 9.997h4.412v2.234H7.886c.525 5.27 4.728 9.472 9.997 9.998V25.69h2.234v4.413c5.27-.526 9.472-4.729 9.998-9.998h-4.413v-2.234h4.413c-.526-5.27-4.728-9.472-9.998-9.997v4.412h-2.234V7.875Zm2.234 6.646v3.87l2.854 1.903-1.24 1.859-3.848-2.566v-5.066h2.234Z"/>
        <path d="m34.217 7.628 3.097.19.136-2.23-6.853-.419-.425 6.293 2.23.15.165-2.455a16.677 16.677 0 0 1 3.188 9.832c0 9.24-7.517 16.756-16.756 16.756-9.238 0-16.755-7.517-16.755-16.756C2.244 9.751 9.761 2.234 19 2.234V0C8.505 0 .01 8.493.01 18.99c0 16.764 20.42 25.425 32.417 13.427a18.865 18.865 0 0 0 5.562-13.428c0-4.134-1.327-8.094-3.772-11.36Z"/>
    </g>
    
</g></symbol><symbol id="cubs" viewBox="0 0 35 35"><g fill="none">
    <path d="M11.348 0H5.127A5.133 5.133 0 0 0 0 5.127v6.22c0 2.828 2.3 5.128 5.127 5.128h6.22c2.828 0 5.128-2.3 5.128-5.127V5.127C16.475 2.3 14.175 0 11.348 0ZM29.873 18.525h-6.22a5.133 5.133 0 0 0-5.128 5.127v6.221c0 2.827 2.3 5.127 5.127 5.127h6.221C32.7 35 35 32.7 35 29.873v-6.22c0-2.828-2.3-5.128-5.127-5.128Z" fill="CurrentColor"/>
    <path d="M29.873 0h-6.22a5.133 5.133 0 0 0-5.128 5.127v6.22c0 3.959-3.22 7.178-7.177 7.178H5.127A5.133 5.133 0 0 0 0 23.652v6.221C0 32.7 2.3 35 5.127 35h6.22c2.828 0 5.128-2.3 5.128-5.127v-6.22c0-3.958 3.22-7.178 7.177-7.178h6.221c2.827 0 5.127-2.3 5.127-5.127V5.127C35 2.3 32.7 0 29.873 0Z" fill="CurrentColor"/>
</g></symbol><symbol id="devices" viewBox="0 0 34 34"><g fill="none">
    <path d="M27.321 29.385c0 .37.3.668.668.668h5.343a.668.668 0 0 0 .668-.668v-.546H27.32v.546ZM33.332 17.91h-5.343c-.369 0-.668.3-.668.668v.547H34v-.547a.668.668 0 0 0-.668-.667ZM13.964 22.16h12.143v-1.82H13.964v1.82ZM27.928 5.768a1.821 1.821 0 0 0-1.821-1.822H7.893A1.821 1.821 0 0 0 6.07 5.768V9.41h5.152a2.744 2.744 0 0 1 2.741 2.74v6.974h12.143v-.547a1.882 1.882 0 0 1 1.821-1.874V5.768ZM20.035 23.375h-6.071v2.428h6.071v-2.428ZM34 20.34H27.32v7.285H34v-7.286ZM0 28.527c0 .843.684 1.526 1.526 1.526h9.698c.842 0 1.525-.683 1.526-1.526v-.295H0v.295Z" fill="CurrentColor"/>
    <path d="M0 27.018h12.75V13.66H0v13.357ZM11.224 10.625H1.526c-.842 0-1.525.684-1.526 1.526v.295h12.75v-.295c0-.842-.684-1.525-1.526-1.526ZM23.071 27.018h-9.107v1.214h9.714v-.607a.607.607 0 0 0-.607-.607Z" fill="CurrentColor"/>
</g></symbol><symbol id="documents" viewBox="0 0 27 35"><g fill="none">
    <path d="M6.155 0v6.22H0v23.14h20.657V0H6.155Zm10.397 23.584H4.203v-2.05h12.349v2.05Zm0-4.733H4.203v-2.05h12.349v2.05Zm0-4.733H4.203v-2.05h12.349v2.05Zm0-4.733H9.035v-2.05h7.517v2.05Z" fill="CurrentColor"/>
    <path d="M0 4.144v.026h4.104V.04L0 4.144ZM22.708 4.459V31.41H4.367V35h22.016V4.459h-3.675Z" fill="CurrentColor"/>
</g></symbol><symbol id="facebook" viewBox="0 0 20 20"><g fill="none">
    <path d="M11.549 20v-9.122h3.06l.46-3.556h-3.52v-2.27c0-1.03.284-1.731 1.762-1.731l1.882-.001V.14A25.512 25.512 0 0 0 12.45 0C9.736 0 7.877 1.657 7.877 4.7v2.622h-3.07v3.556h3.07V20h3.672Z" fill="CurrentColor"/>
</g></symbol><symbol id="image-background" viewBox="0 0 491 430"><g fill="none">
    <path d="M24.001 28.373C25.095 11.478 39.943-1.166 56.797.447l407.061 38.956C479.249 40.876 491 53.805 491 69.266V400c0 16.569-13.431 30-30 30H30.005C12.674 430-1.052 415.357.068 398.062L24 28.372Z" fill="CurrentColor"/>
</g></symbol><symbol id="instagram" viewBox="0 0 20 20"><g fill="none">
    <g clip-path="url(#a)" fill="CurrentColor">
        <path d="M14.586 0H5.414A5.42 5.42 0 0 0 0 5.414v9.172A5.42 5.42 0 0 0 5.414 20h9.172A5.42 5.42 0 0 0 20 14.586V5.414A5.42 5.42 0 0 0 14.586 0ZM10 15.469A5.475 5.475 0 0 1 4.531 10 5.475 5.475 0 0 1 10 4.531 5.475 5.475 0 0 1 15.469 10 5.475 5.475 0 0 1 10 15.469Zm5.6-9.648a1.618 1.618 0 0 1-1.617-1.616c0-.891.725-1.616 1.616-1.616.891 0 1.616.725 1.616 1.616 0 .891-.725 1.616-1.616 1.616Z"/>
        <path d="M10 5.704A4.301 4.301 0 0 0 5.704 10 4.301 4.301 0 0 0 10 14.296 4.301 4.301 0 0 0 14.296 10 4.3 4.3 0 0 0 10 5.704ZM15.6 3.762a.444.444 0 1 0 0 .888.444.444 0 0 0 0-.888Z"/>
    </g>
    
</g></symbol><symbol id="logo" viewBox="0 0 28 31"><g fill="none">
    <path d="M23.744 17.99c3.142.89 5.042 4.28 3.014 6.84a14.997 14.997 0 0 1-13.285 5.609A15 15 0 1 1 25.306 4.618c2.373 2.244.977 5.871-2.006 7.2l-3.375 1.504c-1.119.499-2.434-.123-3.536-.66a3.175 3.175 0 1 0 .394 5.48c1.013-.687 2.227-1.49 3.405-1.157l3.556 1.005Z" fill="CurrentColor"/>
</g></symbol><symbol id="logoipsum"><g fill="none">
    <path d="M21.9 25.572 1.224 11.31C-.87 9.865-.158 6.856 2.455 6.15L24.427.185a3.112 3.112 0 0 1 4.167 2.872L27.293 23.28c-.155 2.4-3.298 3.736-5.394 2.29Z" fill="#E9327C"/>
    <path d="M15.342 29.092 3.162 5.272A3.323 3.323 0 0 1 6.628.478L29.2 3.961a3.322 3.322 0 0 1 2.452 4.796L21.253 29.093a3.322 3.322 0 0 1-5.91 0Z" fill="#1DACE3"/>
    <path d="M28.54 3.858 17.288 2.122 3.472 5.872l5.515 10.789L21.9 25.57c.285.195.598.344.928.442l4.905-9.592.807-12.563ZM85.536 6.643a2.115 2.115 0 1 1 2.115 2.115 2.137 2.137 0 0 1-2.115-2.115Zm.353 3.148h3.525V21.54H85.89V9.791ZM104.638 15.665a5.906 5.906 0 0 1-3.373 5.646 5.905 5.905 0 0 1-2.242.558 4.412 4.412 0 0 1-3.501-1.434v5.804h-3.524V9.791h3.524v1.104a4.413 4.413 0 0 1 3.5-1.432 5.904 5.904 0 0 1 4.098 1.933 5.89 5.89 0 0 1 1.518 4.27Zm-3.525 0a2.798 2.798 0 0 0-5.544-.45 2.797 2.797 0 0 0 2.748 3.318 2.683 2.683 0 0 0 2.796-2.868ZM115.515 18.013c0 2.702-2.35 3.854-4.887 3.854a5.143 5.143 0 0 1-5.051-2.797l3.054-1.738a1.931 1.931 0 0 0 1.997 1.383c.846 0 1.267-.26 1.267-.729 0-1.293-5.779-.61-5.779-4.676 0-2.56 2.161-3.853 4.61-3.853a5.137 5.137 0 0 1 4.581 2.514l-3.007 1.621a1.71 1.71 0 0 0-1.574-1.037c-.611 0-.987.23-.987.658-.003 1.348 5.776.455 5.776 4.8ZM128.396 9.791V21.54h-3.524v-1.106a4.021 4.021 0 0 1-3.36 1.433c-2.373 0-4.393-1.691-4.393-4.864v-7.21h3.524v6.696a1.93 1.93 0 0 0 .526 1.543 1.936 1.936 0 0 0 1.518.595c1.292 0 2.19-.752 2.19-2.42V9.79h3.519ZM148.596 14.325v7.214h-3.524v-6.908c0-1.174-.565-1.926-1.692-1.926-1.175 0-1.832.822-1.832 2.209v6.625h-3.526v-6.908c0-1.174-.563-1.926-1.691-1.926-1.175 0-1.833.822-1.833 2.209v6.625h-3.524V9.791h3.53v1.077a3.605 3.605 0 0 1 3.149-1.41 3.497 3.497 0 0 1 3.078 1.55 3.866 3.866 0 0 1 3.407-1.55c2.697.005 4.458 1.93 4.458 4.867ZM151.582 9.719a2.616 2.616 0 1 0 0-5.232 2.616 2.616 0 0 0 0 5.232ZM37.42 4.387h3.525V21.54h-3.526V4.387Zm5.52 11.278a6.223 6.223 0 1 1 6.224 6.204 6.157 6.157 0 0 1-6.223-6.204Zm8.93 0a2.703 2.703 0 1 0-2.703 2.773 2.636 2.636 0 0 0 2.707-2.773h-.004Zm17.573-5.877v11.161c0 3.947-3.078 5.615-6.202 5.615a6.007 6.007 0 0 1-5.569-2.843l3.007-1.74a2.686 2.686 0 0 0 2.68 1.482 2.34 2.34 0 0 0 2.65-2.514v-1.08a4.175 4.175 0 0 1-3.43 1.526 5.97 5.97 0 0 1 0-11.936 4.174 4.174 0 0 1 3.43 1.527V9.788h3.434Zm-3.43 5.639a2.845 2.845 0 1 0-2.845 2.73 2.66 2.66 0 0 0 2.846-2.727v-.003Zm5.426.23a6.223 6.223 0 1 1 6.224 6.204 6.157 6.157 0 0 1-6.224-6.196v-.008Zm8.93 0a2.704 2.704 0 1 0-2.703 2.773 2.634 2.634 0 0 0 2.703-2.765v-.008Z" fill="#001A49"/>
</g></symbol><symbol id="package" viewBox="0 0 35 35"><g fill="none">
    <path d="M21.875 6.103v-.009l6.55 2.934L35 6.562 17.5 0 0 6.563l17.5 6.562 6.55-2.457L17.5 7.97v-.006l4.375-1.86ZM0 8.75v19.688l16.406 6.153V14.903L0 8.75Zm8.75 19.76-4.375-1.64v-2.335l4.375 1.64v2.335ZM28.438 11.21v5.48l-4.375 1.641v-5.48l-5.47 2.052v19.688L35 28.437V8.75l-6.563 2.46Z" fill="CurrentColor"/>
</g></symbol><symbol id="paper" viewBox="0 0 33 33"><g fill="none">
    <g clip-path="url(#a)" fill="CurrentColor">
        <path d="M18.207 27.516v-2.268H0v2.278c0 2.062 1.667 3.767 3.73 3.767h16.312c-.157-.142-.307-.267-.45-.41a4.746 4.746 0 0 1-1.385-3.367ZM12.89 13.763l2.643 1.814 2.652-1.814c.726-.494 1.302-1.61 1.302-2.489V7.526L15.54 5.574 11.591 7.52v3.753c0 .878.573 1.995 1.299 2.49Zm.596-3.542a.498.498 0 0 1 .704.003l.793.802 1.91-1.91a.498.498 0 1 1 .704.705l-2.264 2.264a.5.5 0 0 1-.352.148.497.497 0 0 1-.353-.15l-1.146-1.157a.5.5 0 0 1 .004-.705ZM30.361 1.707h-.016c-1.462 0-2.679 1.222-2.679 2.685v4.57H33V4.383a2.665 2.665 0 0 0-2.639-2.677Z"/>
        <path d="M7.643 1.707c-1.383 0-2.509 1.11-2.509 2.473l-.147 20.072h13.718c.279.011.5.242.498.521v2.743a3.768 3.768 0 0 0 3.74 3.777h.013a3.742 3.742 0 0 0 3.714-3.768V4.393c0-1.046.471-1.975 1.179-2.686H7.643Zm2.954 5.503a.484.484 0 0 1 .263-.447l4.458-2.19a.49.49 0 0 1 .435 0l4.466 2.196c.167.086.27.26.264.447v4.058c0 1.208-.737 2.632-1.736 3.312l-2.924 2.006a.492.492 0 0 1-.556 0l-2.934-2.006c-.997-.68-1.736-2.104-1.736-3.312V7.21Zm12.02 14.766H8.96a.498.498 0 1 1 0-.995h13.655a.498.498 0 1 1 0 .995Zm0-2.631H8.96a.498.498 0 1 1 0-.996h13.655a.498.498 0 1 1 0 .996Z"/>
    </g>
    
</g></symbol><symbol id="picture" viewBox="0 0 30 30"><g fill="none">
    <g clip-path="url(#a)" fill="CurrentColor">
        <path d="M22.91 12.363h1.758v3.516H22.91v-3.516ZM23.79 7.09a.879.879 0 1 0 0-1.758.879.879 0 0 0 0 1.758Z"/>
        <path d="M29.121 0H.88A.878.878 0 0 0 0 .879V15c0 .486.393.879.879.879h20.273v-4.395c0-.485.393-.879.88-.879h3.515c.486 0 .879.394.879.88v4.394h2.695A.878.878 0 0 0 30 15V.879A.878.878 0 0 0 29.121 0ZM18.516 7.09h-1.758a4.4 4.4 0 0 0-4.395 4.394.878.878 0 1 1-1.758 0A2.64 2.64 0 0 0 7.97 8.848a2.64 2.64 0 0 0-2.637 2.636.878.878 0 1 1-1.758 0A4.4 4.4 0 0 1 7.97 7.09c1.349 0 2.542.624 3.349 1.583 1.025-1.975 3.066-3.341 5.44-3.341h1.758a.878.878 0 1 1 0 1.758Zm5.273 1.758a2.64 2.64 0 0 1-2.637-2.637 2.64 2.64 0 0 1 2.637-2.637 2.64 2.64 0 0 1 2.637 2.637 2.64 2.64 0 0 1-2.637 2.637ZM.879 28.242H22.91v.88a.878.878 0 1 0 1.758 0v-6.727l1.5-1.5a.878.878 0 0 0 .258-.622v-1.757a.878.878 0 0 0-.88-.88h-3.515a.878.878 0 0 0-.879.88v1.757c0 .234.093.457.258.622l1.5 1.5v.515H.88a.878.878 0 0 0-.879.88v3.573c0 .486.393.88.879.88ZM29.121 22.91h-2.695v5.332h2.695a.878.878 0 0 0 .879-.879V23.79a.878.878 0 0 0-.879-.879Z"/>
    </g>
    
</g></symbol><symbol id="play" viewBox="0 0 26 31"><g fill="none">
    <path d="M25 13.768c1.333.77 1.333 2.694 0 3.464L3.25 29.789c-1.333.77-3-.192-3-1.732V2.943c0-1.54 1.667-2.502 3-1.732L25 13.768Z" fill="CurrentColor"/>
</g></symbol><symbol id="rain" viewBox="0 0 812 758"><g fill="none">
    <path d="m91.844 399.163 153.019-143.727a3.646 3.646 0 1 0-5.004-5.3L87.607 394.677c-2.022 1.919-.663 5.323 2.125 5.323.785 0 1.54-.299 2.112-.837Z" fill="url(#a)" fill-opacity=".35"/>
    <path d="m294.844 757.163 153.019-143.727a3.646 3.646 0 1 0-5.004-5.3L290.607 752.677c-2.021 1.919-.663 5.323 2.125 5.323.785 0 1.54-.299 2.112-.837Z" fill="url(#b)" fill-opacity=".35"/>
    <path d="m477.844 314.163 153.019-143.727a3.646 3.646 0 1 0-5.004-5.3L473.607 309.677c-2.021 1.919-.663 5.323 2.125 5.323.785 0 1.54-.299 2.112-.837Z" fill="url(#c)" fill-opacity=".35"/>
    <path d="m726.844 385.163 153.019-143.727a3.646 3.646 0 1 0-5.004-5.3L722.607 380.677c-2.021 1.919-.663 5.323 2.125 5.323.785 0 1.54-.299 2.112-.837Z" fill="url(#d)" fill-opacity=".35"/>
    <path d="M397.844 102.163 550.863-41.564a3.644 3.644 0 1 0-5.004-5.3L393.607 97.676c-2.021 1.92-.663 5.324 2.125 5.324.785 0 1.54-.299 2.112-.837Z" fill="url(#e)" fill-opacity=".35"/>
    <path d="m9.844 748.163 153.019-143.727a3.646 3.646 0 1 0-5.004-5.3L5.607 743.677C3.585 745.596 4.944 749 7.732 749c.785 0 1.54-.299 2.112-.837Z" fill="url(#f)" fill-opacity=".35"/>
    <path d="m714.844 727.163 153.019-143.727a3.646 3.646 0 1 0-5.004-5.3L710.607 722.677c-2.021 1.919-.663 5.323 2.125 5.323.785 0 1.54-.299 2.112-.837Z" fill="url(#g)" fill-opacity=".35"/>
    <linearGradient id="a" x1="59.143" y1="405.882" x2="210.189" y2="216.571" gradientUnits="userSpaceOnUse">
        <stop stop-color="#35AFBF"/>
        <stop offset="1" stop-color="#35AFBF" stop-opacity=".06"/>
    </linearGradient>
    <linearGradient id="b" x1="262.143" y1="763.882" x2="413.189" y2="574.571" gradientUnits="userSpaceOnUse">
        <stop stop-color="#35AFBF"/>
        <stop offset="1" stop-color="#35AFBF" stop-opacity=".06"/>
    </linearGradient>
    <linearGradient id="c" x1="445.143" y1="320.882" x2="596.189" y2="131.571" gradientUnits="userSpaceOnUse">
        <stop stop-color="#35AFBF"/>
        <stop offset="1" stop-color="#35AFBF" stop-opacity=".06"/>
    </linearGradient>
    <linearGradient id="d" x1="694.143" y1="391.882" x2="845.189" y2="202.571" gradientUnits="userSpaceOnUse">
        <stop stop-color="#EAF4F5"/>
        <stop offset="1" stop-color="#35AFBF" stop-opacity=".06"/>
    </linearGradient>
    <linearGradient id="e" x1="365.143" y1="108.882" x2="516.189" y2="-80.429" gradientUnits="userSpaceOnUse">
        <stop stop-color="#EAF4F5"/>
        <stop offset="1" stop-color="#35AFBF" stop-opacity=".06"/>
    </linearGradient>
    <linearGradient id="f" x1="-22.857" y1="754.882" x2="128.189" y2="565.571" gradientUnits="userSpaceOnUse">
        <stop stop-color="#EAF4F5"/>
        <stop offset="1" stop-color="#35AFBF" stop-opacity=".06"/>
    </linearGradient>
    <linearGradient id="g" x1="682.143" y1="733.882" x2="833.189" y2="544.571" gradientUnits="userSpaceOnUse">
        <stop stop-color="#EAF4F5"/>
        <stop offset="1" stop-color="#35AFBF" stop-opacity=".06"/>
    </linearGradient>
</g></symbol><symbol id="settings" viewBox="0 0 31 31"><g fill="none">
    <path d="M0 1.877h3.633v9.082H0V1.877ZM27.367 20.041H31v9.082h-3.633v-9.082ZM13.684 10.959h3.632v9.082h-3.632v-9.082ZM2.725 18.225h9.142v-5.45H2.725A2.728 2.728 0 0 0 0 15.5a2.728 2.728 0 0 0 2.725 2.725ZM28.275 12.775h-9.142v5.45h9.142A2.728 2.728 0 0 0 31 15.5a2.728 2.728 0 0 0-2.725-2.725ZM28.275 3.693H5.45v5.45h22.826A2.728 2.728 0 0 0 31 6.418a2.728 2.728 0 0 0-2.725-2.725ZM2.725 27.307H25.55v-5.45H2.725A2.728 2.728 0 0 0 0 24.582a2.728 2.728 0 0 0 2.725 2.725Z" fill="CurrentColor"/>
</g></symbol><symbol id="support" viewBox="0 0 28 33"><g fill="none">
    <path d="M22.224 22.189a6.646 6.646 0 0 1-5.38 2.745h-3.099c-1.07 0-1.982-.68-2.327-1.631a7.847 7.847 0 0 1-1.252-.495 8.428 8.428 0 0 1-2.338-1.73C3.351 22.06 0 26.05 0 30.822v.624C0 32.305.695 33 1.553 33h24.092c.858 0 1.553-.695 1.553-1.553v-.624c0-3.687-2-6.906-4.974-8.634ZM6.178 15.435c.668 0 1.249-.37 1.55-.916.007.022.015.043.024.065l.007.02c.706 1.857 2.08 3.415 3.89 4.096a2.473 2.473 0 0 1 2.097-1.16h3.1c.308 0 .596-.086.848-.227.424-.237.805-.838 1.001-1.157.315-.51.56-1.05.775-1.638.122.22.289.413.49.563v.76a3.118 3.118 0 0 1-3.115 3.115h-3.1a1.06 1.06 0 0 0 0 2.121h3.1a5.242 5.242 0 0 0 5.236-5.236v-.76c.43-.322.707-.836.707-1.414V9.24c0-.59-.29-1.112-.734-1.434C21.71 3.445 18.05 0 13.6 0S5.49 3.445 5.144 7.807a1.765 1.765 0 0 0-.734 1.434v4.426c0 .979.796 1.768 1.768 1.768ZM13.6 2.122a6.369 6.369 0 0 1 6.329 5.73c-.209.163-.38.373-.497.613-1.001-2.611-3.236-4.43-5.832-4.43-2.652 0-4.85 1.881-5.828 4.42l-.004.01a1.774 1.774 0 0 0-.497-.614 6.37 6.37 0 0 1 6.33-5.73Z" fill="CurrentColor"/>
</g></symbol><symbol id="twitter" viewBox="0 0 20 20"><g fill="none">
    <g clip-path="url(#a)">
        <path d="M20 3.799a8.549 8.549 0 0 1-2.363.647 4.077 4.077 0 0 0 1.804-2.266 8.192 8.192 0 0 1-2.6.992A4.099 4.099 0 0 0 9.75 5.976c0 .325.027.638.095.935-3.409-.166-6.425-1.8-8.451-4.288A4.128 4.128 0 0 0 .83 4.694c0 1.42.732 2.679 1.821 3.407A4.05 4.05 0 0 1 .8 7.597v.045a4.119 4.119 0 0 0 3.285 4.03 4.09 4.09 0 0 1-1.075.134c-.262 0-.527-.015-.776-.07.531 1.624 2.038 2.818 3.831 2.856a8.238 8.238 0 0 1-5.084 1.75A7.67 7.67 0 0 1 0 16.284a11.543 11.543 0 0 0 6.29 1.84c7.545 0 11.67-6.25 11.67-11.668 0-.18-.006-.356-.015-.53A8.179 8.179 0 0 0 20 3.8Z" fill="CurrentColor"/>
    </g>
    
</g></symbol><symbol id="whatsapp" viewBox="0 0 20 20"><g fill="none">
    <g clip-path="url(#a)">
        <path d="M10.002 0h-.005C4.485 0 0 4.485 0 10c0 2.188.705 4.215 1.904 5.861L.658 19.576 4.5 18.347A9.913 9.913 0 0 0 10.002 20C15.517 20 20 15.514 20 10S15.516 0 10.002 0Zm5.82 14.121c-.242.681-1.2 1.246-1.963 1.412-.523.11-1.205.2-3.503-.753-2.938-1.217-4.831-4.204-4.978-4.397C5.236 10.188 4.19 8.8 4.19 7.366c0-1.435.729-2.133 1.022-2.433.242-.247.64-.36 1.023-.36.124 0 .235.007.335.012.294.013.441.03.635.494.241.581.829 2.016.899 2.163.071.148.142.348.042.542-.094.2-.176.288-.324.458-.147.17-.287.3-.434.483-.135.159-.288.329-.118.623.17.287.758 1.246 1.623 2.016 1.116.993 2.02 1.311 2.345 1.446.24.1.528.076.705-.111.223-.242.5-.642.78-1.035.2-.283.453-.318.718-.218.27.094 1.699.8 1.993.947.293.147.487.217.559.34.07.124.07.706-.172 1.388Z" fill="CurrentColor"/>
    </g>
    
</g></symbol></svg>